<svg version="1.1" xmlns="http://www.w3.org/2000/svg" xmlns:xlink="http://www.w3.org/1999/xlink" width="787.275390625" height="455"><defs/><g><text fill="#eeeeee" stroke="none" font-family="Arial" font-size="24px" font-style="normal" font-weight="normal" text-decoration="none" x="0" y="0">UNREGISTERED</text><text fill="#eeeeee" stroke="none" font-family="Arial" font-size="24px" font-style="normal" font-weight="normal" text-decoration="none" x="0" y="30">UNREGISTERED</text><text fill="#eeeeee" stroke="none" font-family="Arial" font-size="24px" font-style="normal" font-weight="normal" text-decoration="none" x="0" y="60">UNREGISTERED</text><text fill="#eeeeee" stroke="none" font-family="Arial" font-size="24px" font-style="normal" font-weight="normal" text-decoration="none" x="0" y="90">UNREGISTERED</text><text fill="#eeeeee" stroke="none" font-family="Arial" font-size="24px" font-style="normal" font-weight="normal" text-decoration="none" x="0" y="120">UNREGISTERED</text><text fill="#eeeeee" stroke="none" font-family="Arial" font-size="24px" font-style="normal" font-weight="normal" text-decoration="none" x="0" y="150">UNREGISTERED</text><text fill="#eeeeee" stroke="none" font-family="Arial" font-size="24px" font-style="normal" font-weight="normal" text-decoration="none" x="0" y="180">UNREGISTERED</text><text fill="#eeeeee" stroke="none" font-family="Arial" font-size="24px" font-style="normal" font-weight="normal" text-decoration="none" x="0" y="210">UNREGISTERED</text><text fill="#eeeeee" stroke="none" font-family="Arial" font-size="24px" font-style="normal" font-weight="normal" text-decoration="none" x="0" y="240">UNREGISTERED</text><text fill="#eeeeee" stroke="none" font-family="Arial" font-size="24px" font-style="normal" font-weight="normal" text-decoration="none" x="0" y="270">UNREGISTERED</text><text fill="#eeeeee" stroke="none" font-family="Arial" font-size="24px" font-style="normal" font-weight="normal" text-decoration="none" x="0" y="300">UNREGISTERED</text><text fill="#eeeeee" stroke="none" font-family="Arial" font-size="24px" font-style="normal" font-weight="normal" text-decoration="none" x="0" y="330">UNREGISTERED</text><text fill="#eeeeee" stroke="none" font-family="Arial" font-size="24px" font-style="normal" font-weight="normal" text-decoration="none" x="0" y="360">UNREGISTERED</text><text fill="#eeeeee" stroke="none" font-family="Arial" font-size="24px" font-style="normal" font-weight="normal" text-decoration="none" x="0" y="390">UNREGISTERED</text><text fill="#eeeeee" stroke="none" font-family="Arial" font-size="24px" font-style="normal" font-weight="normal" text-decoration="none" x="0" y="420">UNREGISTERED</text><text fill="#eeeeee" stroke="none" font-family="Arial" font-size="24px" font-style="normal" font-weight="normal" text-decoration="none" x="0" y="450">UNREGISTERED</text><text fill="#eeeeee" stroke="none" font-family="Arial" font-size="24px" font-style="normal" font-weight="normal" text-decoration="none" x="200" y="0">UNREGISTERED</text><text fill="#eeeeee" stroke="none" font-family="Arial" font-size="24px" font-style="normal" font-weight="normal" text-decoration="none" x="200" y="30">UNREGISTERED</text><text fill="#eeeeee" stroke="none" font-family="Arial" font-size="24px" font-style="normal" font-weight="normal" text-decoration="none" x="200" y="60">UNREGISTERED</text><text fill="#eeeeee" stroke="none" font-family="Arial" font-size="24px" font-style="normal" font-weight="normal" text-decoration="none" x="200" y="90">UNREGISTERED</text><text fill="#eeeeee" stroke="none" font-family="Arial" font-size="24px" font-style="normal" font-weight="normal" text-decoration="none" x="200" y="120">UNREGISTERED</text><text fill="#eeeeee" stroke="none" font-family="Arial" font-size="24px" font-style="normal" font-weight="normal" text-decoration="none" x="200" y="150">UNREGISTERED</text><text fill="#eeeeee" stroke="none" font-family="Arial" font-size="24px" font-style="normal" font-weight="normal" text-decoration="none" x="200" y="180">UNREGISTERED</text><text fill="#eeeeee" stroke="none" font-family="Arial" font-size="24px" font-style="normal" font-weight="normal" text-decoration="none" x="200" y="210">UNREGISTERED</text><text fill="#eeeeee" stroke="none" font-family="Arial" font-size="24px" font-style="normal" font-weight="normal" text-decoration="none" x="200" y="240">UNREGISTERED</text><text fill="#eeeeee" stroke="none" font-family="Arial" font-size="24px" font-style="normal" font-weight="normal" text-decoration="none" x="200" y="270">UNREGISTERED</text><text fill="#eeeeee" stroke="none" font-family="Arial" font-size="24px" font-style="normal" font-weight="normal" text-decoration="none" x="200" y="300">UNREGISTERED</text><text fill="#eeeeee" stroke="none" font-family="Arial" font-size="24px" font-style="normal" font-weight="normal" text-decoration="none" x="200" y="330">UNREGISTERED</text><text fill="#eeeeee" stroke="none" font-family="Arial" font-size="24px" font-style="normal" font-weight="normal" text-decoration="none" x="200" y="360">UNREGISTERED</text><text fill="#eeeeee" stroke="none" font-family="Arial" font-size="24px" font-style="normal" font-weight="normal" text-decoration="none" x="200" y="390">UNREGISTERED</text><text fill="#eeeeee" stroke="none" font-family="Arial" font-size="24px" font-style="normal" font-weight="normal" text-decoration="none" x="200" y="420">UNREGISTERED</text><text fill="#eeeeee" stroke="none" font-family="Arial" font-size="24px" font-style="normal" font-weight="normal" text-decoration="none" x="200" y="450">UNREGISTERED</text><text fill="#eeeeee" stroke="none" font-family="Arial" font-size="24px" font-style="normal" font-weight="normal" text-decoration="none" x="400" y="0">UNREGISTERED</text><text fill="#eeeeee" stroke="none" font-family="Arial" font-size="24px" font-style="normal" font-weight="normal" text-decoration="none" x="400" y="30">UNREGISTERED</text><text fill="#eeeeee" stroke="none" font-family="Arial" font-size="24px" font-style="normal" font-weight="normal" text-decoration="none" x="400" y="60">UNREGISTERED</text><text fill="#eeeeee" stroke="none" font-family="Arial" font-size="24px" font-style="normal" font-weight="normal" text-decoration="none" x="400" y="90">UNREGISTERED</text><text fill="#eeeeee" stroke="none" font-family="Arial" font-size="24px" font-style="normal" font-weight="normal" text-decoration="none" x="400" y="120">UNREGISTERED</text><text fill="#eeeeee" stroke="none" font-family="Arial" font-size="24px" font-style="normal" font-weight="normal" text-decoration="none" x="400" y="150">UNREGISTERED</text><text fill="#eeeeee" stroke="none" font-family="Arial" font-size="24px" font-style="normal" font-weight="normal" text-decoration="none" x="400" y="180">UNREGISTERED</text><text fill="#eeeeee" stroke="none" font-family="Arial" font-size="24px" font-style="normal" font-weight="normal" text-decoration="none" x="400" y="210">UNREGISTERED</text><text fill="#eeeeee" stroke="none" font-family="Arial" font-size="24px" font-style="normal" font-weight="normal" text-decoration="none" x="400" y="240">UNREGISTERED</text><text fill="#eeeeee" stroke="none" font-family="Arial" font-size="24px" font-style="normal" font-weight="normal" text-decoration="none" x="400" y="270">UNREGISTERED</text><text fill="#eeeeee" stroke="none" font-family="Arial" font-size="24px" font-style="normal" font-weight="normal" text-decoration="none" x="400" y="300">UNREGISTERED</text><text fill="#eeeeee" stroke="none" font-family="Arial" font-size="24px" font-style="normal" font-weight="normal" text-decoration="none" x="400" y="330">UNREGISTERED</text><text fill="#eeeeee" stroke="none" font-family="Arial" font-size="24px" font-style="normal" font-weight="normal" text-decoration="none" x="400" y="360">UNREGISTERED</text><text fill="#eeeeee" stroke="none" font-family="Arial" font-size="24px" font-style="normal" font-weight="normal" text-decoration="none" x="400" y="390">UNREGISTERED</text><text fill="#eeeeee" stroke="none" font-family="Arial" font-size="24px" font-style="normal" font-weight="normal" text-decoration="none" x="400" y="420">UNREGISTERED</text><text fill="#eeeeee" stroke="none" font-family="Arial" font-size="24px" font-style="normal" font-weight="normal" text-decoration="none" x="400" y="450">UNREGISTERED</text><text fill="#eeeeee" stroke="none" font-family="Arial" font-size="24px" font-style="normal" font-weight="normal" text-decoration="none" x="600" y="0">UNREGISTERED</text><text fill="#eeeeee" stroke="none" font-family="Arial" font-size="24px" font-style="normal" font-weight="normal" text-decoration="none" x="600" y="30">UNREGISTERED</text><text fill="#eeeeee" stroke="none" font-family="Arial" font-size="24px" font-style="normal" font-weight="normal" text-decoration="none" x="600" y="60">UNREGISTERED</text><text fill="#eeeeee" stroke="none" font-family="Arial" font-size="24px" font-style="normal" font-weight="normal" text-decoration="none" x="600" y="90">UNREGISTERED</text><text fill="#eeeeee" stroke="none" font-family="Arial" font-size="24px" font-style="normal" font-weight="normal" text-decoration="none" x="600" y="120">UNREGISTERED</text><text fill="#eeeeee" stroke="none" font-family="Arial" font-size="24px" font-style="normal" font-weight="normal" text-decoration="none" x="600" y="150">UNREGISTERED</text><text fill="#eeeeee" stroke="none" font-family="Arial" font-size="24px" font-style="normal" font-weight="normal" text-decoration="none" x="600" y="180">UNREGISTERED</text><text fill="#eeeeee" stroke="none" font-family="Arial" font-size="24px" font-style="normal" font-weight="normal" text-decoration="none" x="600" y="210">UNREGISTERED</text><text fill="#eeeeee" stroke="none" font-family="Arial" font-size="24px" font-style="normal" font-weight="normal" text-decoration="none" x="600" y="240">UNREGISTERED</text><text fill="#eeeeee" stroke="none" font-family="Arial" font-size="24px" font-style="normal" font-weight="normal" text-decoration="none" x="600" y="270">UNREGISTERED</text><text fill="#eeeeee" stroke="none" font-family="Arial" font-size="24px" font-style="normal" font-weight="normal" text-decoration="none" x="600" y="300">UNREGISTERED</text><text fill="#eeeeee" stroke="none" font-family="Arial" font-size="24px" font-style="normal" font-weight="normal" text-decoration="none" x="600" y="330">UNREGISTERED</text><text fill="#eeeeee" stroke="none" font-family="Arial" font-size="24px" font-style="normal" font-weight="normal" text-decoration="none" x="600" y="360">UNREGISTERED</text><text fill="#eeeeee" stroke="none" font-family="Arial" font-size="24px" font-style="normal" font-weight="normal" text-decoration="none" x="600" y="390">UNREGISTERED</text><text fill="#eeeeee" stroke="none" font-family="Arial" font-size="24px" font-style="normal" font-weight="normal" text-decoration="none" x="600" y="420">UNREGISTERED</text><text fill="#eeeeee" stroke="none" font-family="Arial" font-size="24px" font-style="normal" font-weight="normal" text-decoration="none" x="600" y="450">UNREGISTERED</text><g transform="translate(-70,-214) scale(1,1)"><rect fill="#C0C0C0" stroke="none" x="351" y="231" width="229.29541015625" height="120" opacity="0.2"/></g><g transform="translate(-70,-214) scale(1,1)"><rect fill="#ffffff" stroke="none" x="344" y="224" width="229.29541015625" height="120"/></g><g transform="translate(-70,-214) scale(1,1)"><path fill="none" stroke="#000000" d="M 344 224 L 573.29541015625 224 L 573.29541015625 344 L 344 344 L 344 224 Z Z" stroke-miterlimit="10"/></g><g transform="translate(-70,-214) scale(1,1)"><path fill="none" stroke="#000000" d="M 344 249 L 573.29541015625 249" stroke-miterlimit="10"/></g><g transform="translate(-70,-214) scale(1,1)"><path fill="none" stroke="#000000" d="M 344 287 L 573.29541015625 287" stroke-miterlimit="10"/></g><g transform="translate(-70,-214) scale(1,1)"><g><path fill="none" stroke="none"/><text fill="#000000" stroke="none" font-family="Arial" font-size="13px" font-style="italic" font-weight="bold" text-decoration="none" x="400.5" y="241.92700004577637">AbstractCommand</text></g></g><g transform="translate(-70,-214) scale(1,1)"><g><path fill="none" stroke="none"/><text fill="#000000" stroke="none" font-family="Arial" font-size="13px" font-style="normal" font-weight="normal" text-decoration="none" x="349" y="264.7099609375">#metrics: HystrixCommandMetrices</text></g></g><g transform="translate(-70,-214) scale(1,1)"><g><path fill="none" stroke="none"/><text fill="#000000" stroke="none" font-family="Arial" font-size="13px" font-style="normal" font-weight="normal" text-decoration="none" x="349" y="279.7099609375">#circuitBreaker: HystrixCircuitBreaker</text></g></g><g transform="translate(-70,-214) scale(1,1)"><g><path fill="none" stroke="none"/><text fill="#000000" stroke="none" font-family="Arial" font-size="13px" font-style="normal" font-weight="normal" text-decoration="none" x="349" y="302.7099609375">+execute()</text></g></g><g transform="translate(-70,-214) scale(1,1)"><g><path fill="none" stroke="none"/><text fill="#000000" stroke="none" font-family="Arial" font-size="13px" font-style="normal" font-weight="normal" text-decoration="none" x="349" y="317.7099609375">+queue()</text></g></g><g transform="translate(-70,-214) scale(1,1)"><g><path fill="none" stroke="none"/><text fill="#000000" stroke="none" font-family="Arial" font-size="13px" font-style="normal" font-weight="normal" text-decoration="none" x="349" y="332.7099609375">#executeCommand()</text></g></g><g transform="translate(-70,-214) scale(1,1)"><rect fill="#C0C0C0" stroke="none" x="351" y="551" width="226.79443359375" height="115" opacity="0.2"/></g><g transform="translate(-70,-214) scale(1,1)"><rect fill="#ffffff" stroke="none" x="344" y="544" width="226.79443359375" height="115"/></g><g transform="translate(-70,-214) scale(1,1)"><path fill="none" stroke="#000000" d="M 344 544 L 570.79443359375 544 L 570.79443359375 659 L 344 659 L 344 544 Z Z" stroke-miterlimit="10"/></g><g transform="translate(-70,-214) scale(1,1)"><path fill="none" stroke="#000000" d="M 344 569 L 570.79443359375 569" stroke-miterlimit="10"/></g><g transform="translate(-70,-214) scale(1,1)"><path fill="none" stroke="#000000" d="M 344 607 L 570.79443359375 607" stroke-miterlimit="10"/></g><g transform="translate(-70,-214) scale(1,1)"><g><path fill="none" stroke="none"/><text fill="#000000" stroke="none" font-family="Arial" font-size="13px" font-style="normal" font-weight="bold" text-decoration="none" x="380.819091796875" y="561.7099609375">HystrixCommandMetrics</text></g></g><g transform="translate(-70,-214) scale(1,1)"><g><path fill="none" stroke="none"/><text fill="#000000" stroke="none" font-family="Arial" font-size="13px" font-style="normal" font-weight="normal" text-decoration="none" x="349" y="584.7099609375">-healthCounts: HealthCounts</text></g></g><g transform="translate(-70,-214) scale(1,1)"><g><path fill="none" stroke="none"/><text fill="#000000" stroke="none" font-family="Arial" font-size="13px" font-style="normal" font-weight="normal" text-decoration="none" x="349" y="599.7099609375">-circuitBreaker: MystrixCircuitBreaker</text></g></g><g transform="translate(-70,-214) scale(1,1)"><g><path fill="none" stroke="none"/><text fill="#000000" stroke="none" font-family="Arial" font-size="13px" font-style="normal" font-weight="normal" text-decoration="none" x="349" y="622.7099609375">+markSuccess()</text></g></g><g transform="translate(-70,-214) scale(1,1)"><g><path fill="none" stroke="none"/><text fill="#000000" stroke="none" font-family="Arial" font-size="13px" font-style="normal" font-weight="normal" text-decoration="none" x="349" y="637.7099609375">+markFailure()</text></g></g><g transform="translate(-70,-214) scale(1,1)"><g><path fill="none" stroke="none"/><text fill="#000000" stroke="none" font-family="Arial" font-size="13px" font-style="normal" font-weight="normal" text-decoration="none" x="349" y="652.7099609375">+getHealthCounts()</text></g></g><g transform="translate(-70,-214) scale(1,1)"><path fill="none" stroke="#000000" d="M 458 345 L 457 543" stroke-miterlimit="10"/></g><g transform="translate(-70,-214) scale(1,1)"><path fill="none" stroke="#000000" d="M 452.84186191640504 532.8161948330815 L 457 543 L 461.26079005579066 532.8587146721693" stroke-miterlimit="10"/></g><g transform="translate(-70,-214) scale(1,1)"><rect fill="#C0C0C0" stroke="none" x="87" y="447" width="195.0244140625" height="100" opacity="0.2"/></g><g transform="translate(-70,-214) scale(1,1)"><rect fill="#ffffff" stroke="none" x="80" y="440" width="195.0244140625" height="100"/></g><g transform="translate(-70,-214) scale(1,1)"><path fill="none" stroke="#000000" d="M 80 440 L 275.0244140625 440 L 275.0244140625 540 L 80 540 L 80 440 Z Z" stroke-miterlimit="10"/></g><g transform="translate(-70,-214) scale(1,1)"><path fill="none" stroke="#000000" d="M 80 465 L 275.0244140625 465" stroke-miterlimit="10"/></g><g transform="translate(-70,-214) scale(1,1)"><path fill="none" stroke="#000000" d="M 80 488 L 275.0244140625 488" stroke-miterlimit="10"/></g><g transform="translate(-70,-214) scale(1,1)"><g><path fill="none" stroke="none"/><text fill="#000000" stroke="none" font-family="Arial" font-size="13px" font-style="normal" font-weight="bold" text-decoration="none" x="123.693603515625" y="457.7099609375">HystrixCommand</text></g></g><g transform="translate(-70,-214) scale(1,1)"><g><path fill="none" stroke="none"/><text fill="#000000" stroke="none" font-family="Arial" font-size="13px" font-style="normal" font-weight="normal" text-decoration="none" x="85" y="480.7099609375">-fallbackCmd: HystrixCommand</text></g></g><g transform="translate(-70,-214) scale(1,1)"><g><path fill="none" stroke="none"/><text fill="#000000" stroke="none" font-family="Arial" font-size="13px" font-style="normal" font-weight="normal" text-decoration="none" x="85" y="503.7099609375">+execute()</text></g></g><g transform="translate(-70,-214) scale(1,1)"><g><path fill="none" stroke="none"/><text fill="#000000" stroke="none" font-family="Arial" font-size="13px" font-style="normal" font-weight="normal" text-decoration="none" x="85" y="518.7099609375">+getFallback()</text></g></g><g transform="translate(-70,-214) scale(1,1)"><g><path fill="none" stroke="none"/><text fill="#000000" stroke="none" font-family="Arial" font-size="13px" font-style="normal" font-weight="normal" text-decoration="none" x="85" y="533.7099609375">#Operation1()</text></g></g><g transform="translate(-70,-214) scale(1,1)"><path fill="none" stroke="#000000" d="M 247 439 L 375 345" stroke-miterlimit="10"/></g><g transform="translate(-70,-214) scale(1,1)"><path fill="#FFFFFF" stroke="none" d="M 363.6009852233935 363.8165475611948 L 375 345 L 353.6343709735758 350.2449877316559"/></g><g transform="translate(-70,-214) scale(1,1)"><path fill="none" stroke="#000000" d="M 363.6009852233935 363.8165475611948 L 375 345 L 353.6343709735758 350.2449877316559 L 363.6009852233935 363.8165475611948" stroke-miterlimit="10"/></g><g transform="translate(-70,-214) scale(1,1)"><rect fill="#C0C0C0" stroke="none" x="647" y="335" width="207.275390625" height="130" opacity="0.2"/></g><g transform="translate(-70,-214) scale(1,1)"><rect fill="#ffffff" stroke="none" x="640" y="328" width="207.275390625" height="130"/></g><g transform="translate(-70,-214) scale(1,1)"><path fill="none" stroke="#000000" d="M 640 328 L 847.275390625 328 L 847.275390625 458 L 640 458 L 640 328 Z Z" stroke-miterlimit="10"/></g><g transform="translate(-70,-214) scale(1,1)"><path fill="none" stroke="#000000" d="M 640 353 L 847.275390625 353" stroke-miterlimit="10"/></g><g transform="translate(-70,-214) scale(1,1)"><path fill="none" stroke="#000000" d="M 640 391 L 847.275390625 391" stroke-miterlimit="10"/></g><g transform="translate(-70,-214) scale(1,1)"><g><path fill="none" stroke="none"/><text fill="#000000" stroke="none" font-family="Arial" font-size="13px" font-style="normal" font-weight="bold" text-decoration="none" x="676.800048828125" y="345.7099609375">HystrixCircuitBreaker</text></g></g><g transform="translate(-70,-214) scale(1,1)"><g><path fill="none" stroke="none"/><text fill="#000000" stroke="none" font-family="Arial" font-size="13px" font-style="normal" font-weight="normal" text-decoration="none" x="645" y="368.53857421875">-status: Status</text></g></g><g transform="translate(-70,-214) scale(1,1)"><g><path fill="none" stroke="none"/><text fill="#000000" stroke="none" font-family="Arial" font-size="13px" font-style="normal" font-weight="normal" text-decoration="none" x="645" y="383.7099609375">-metrics: HystrixCommandMetrics</text></g></g><g transform="translate(-70,-214) scale(1,1)"><g><path fill="none" stroke="none"/><text fill="#000000" stroke="none" font-family="Arial" font-size="13px" font-style="normal" font-weight="normal" text-decoration="none" x="645" y="406.7099609375">+allowRequest()</text></g></g><g transform="translate(-70,-214) scale(1,1)"><g><path fill="none" stroke="none"/><text fill="#000000" stroke="none" font-family="Arial" font-size="13px" font-style="normal" font-weight="normal" text-decoration="none" x="645" y="421.7099609375">+markSuccess()</text></g></g><g transform="translate(-70,-214) scale(1,1)"><g><path fill="none" stroke="none"/><text fill="#000000" stroke="none" font-family="Arial" font-size="13px" font-style="normal" font-weight="normal" text-decoration="none" x="645" y="436.7099609375">+markFailure()</text></g></g><g transform="translate(-70,-214) scale(1,1)"><g><path fill="none" stroke="none"/><text fill="#000000" stroke="none" font-family="Arial" font-size="13px" font-style="normal" font-weight="normal" text-decoration="none" x="645" y="451.7099609375">-isOpen()</text></g></g><g transform="translate(-70,-214) scale(1,1)"><path fill="none" stroke="#000000" d="M 574 328 L 639 353" stroke-miterlimit="10"/></g><g transform="translate(-70,-214) scale(1,1)"><path fill="none" stroke="#000000" d="M 628.0035832659772 353.28074723810596 L 639 353 L 631.0258408827551 345.4228774344834" stroke-miterlimit="10"/></g><g transform="translate(-70,-214) scale(1,1)"><path fill="none" stroke="#000000" d="M 652 459 L 537 543" stroke-miterlimit="10"/></g><g transform="translate(-70,-214) scale(1,1)"><path fill="none" stroke="#000000" d="M 542.7236166119696 533.6063738162952 L 537 543 L 547.6895048936649 540.4049113448066" stroke-miterlimit="10"/></g><g transform="translate(-70,-214) scale(1,1)"><rect fill="#C0C0C0" stroke="none" x="695" y="551" width="125.34619140625" height="90" opacity="0.2"/></g><g transform="translate(-70,-214) scale(1,1)"><rect fill="#ffffff" stroke="none" x="688" y="544" width="125.34619140625" height="90"/></g><g transform="translate(-70,-214) scale(1,1)"><path fill="none" stroke="#000000" d="M 688 544 L 813.34619140625 544 L 813.34619140625 634 L 688 634 L 688 544 Z Z" stroke-miterlimit="10"/></g><g transform="translate(-70,-214) scale(1,1)"><path fill="none" stroke="#000000" d="M 688 582 L 813.34619140625 582" stroke-miterlimit="10"/></g><g transform="translate(-70,-214) scale(1,1)"><g><path fill="none" stroke="none"/><text fill="#000000" stroke="none" font-family="Arial" font-size="13px" font-style="normal" font-weight="normal" text-decoration="none" x="707.30908203125" y="559.7099609375">«enumeration»</text></g></g><g transform="translate(-70,-214) scale(1,1)"><g><path fill="none" stroke="none"/><text fill="#000000" stroke="none" font-family="Arial" font-size="13px" font-style="normal" font-weight="bold" text-decoration="none" x="730.80810546875" y="574.53857421875">Status</text></g></g><g transform="translate(-70,-214) scale(1,1)"><g><path fill="none" stroke="none"/><text fill="#000000" stroke="none" font-family="Arial" font-size="13px" font-style="normal" font-weight="normal" text-decoration="none" x="693" y="597.53857421875">CLOSED</text></g></g><g transform="translate(-70,-214) scale(1,1)"><g><path fill="none" stroke="none"/><text fill="#000000" stroke="none" font-family="Arial" font-size="13px" font-style="normal" font-weight="normal" text-decoration="none" x="693" y="612.53857421875">OPEN</text></g></g><g transform="translate(-70,-214) scale(1,1)"><g><path fill="none" stroke="none"/><text fill="#000000" stroke="none" font-family="Arial" font-size="13px" font-style="normal" font-weight="normal" text-decoration="none" x="693" y="627.53857421875">HALF_OPEN</text></g></g><g transform="translate(-70,-214) scale(1,1)"><path fill="none" stroke="#000000" d="M 745 459 L 748 543" stroke-miterlimit="10"/></g><g transform="translate(-70,-214) scale(1,1)"><path fill="none" stroke="#000000" d="M 743.4304429001526 532.9940443779101 L 748 543 L 751.8441142603102 532.6935561150473" stroke-miterlimit="10"/></g></g></svg>